<mxfile host="app.diagrams.net" agent="Mozilla/5.0 (Windows NT 10.0; Win64; x64) AppleWebKit/537.36 (KHTML, like Gecko) Chrome/137.0.0.0 Safari/537.36" version="27.1.4">
  <diagram name="หน้า-1" id="qovV9kP7GWvJKAiB7dS9">
    <mxGraphModel dx="3679" dy="1570" grid="1" gridSize="10" guides="1" tooltips="1" connect="1" arrows="1" fold="1" page="1" pageScale="1" pageWidth="827" pageHeight="1169" math="0" shadow="0">
      <root>
        <mxCell id="0" />
        <mxCell id="1" parent="0" />
        <mxCell id="I2AaYKb_KKNV5OTsQZRc-1" value="comment comment" style="rounded=0;whiteSpace=wrap;html=1;" vertex="1" parent="1">
          <mxGeometry x="-90" y="460" width="120" height="60" as="geometry" />
        </mxCell>
        <mxCell id="I2AaYKb_KKNV5OTsQZRc-7" style="edgeStyle=orthogonalEdgeStyle;rounded=0;orthogonalLoop=1;jettySize=auto;html=1;entryX=0;entryY=0.5;entryDx=0;entryDy=0;" edge="1" parent="1" source="I2AaYKb_KKNV5OTsQZRc-4" target="I2AaYKb_KKNV5OTsQZRc-20">
          <mxGeometry relative="1" as="geometry">
            <Array as="points" />
          </mxGeometry>
        </mxCell>
        <mxCell id="I2AaYKb_KKNV5OTsQZRc-18" style="edgeStyle=orthogonalEdgeStyle;rounded=0;orthogonalLoop=1;jettySize=auto;html=1;exitX=0.5;exitY=0;exitDx=0;exitDy=0;entryX=0.5;entryY=1;entryDx=0;entryDy=0;" edge="1" parent="1" source="I2AaYKb_KKNV5OTsQZRc-4" target="I2AaYKb_KKNV5OTsQZRc-15">
          <mxGeometry relative="1" as="geometry" />
        </mxCell>
        <mxCell id="I2AaYKb_KKNV5OTsQZRc-19" style="edgeStyle=orthogonalEdgeStyle;rounded=0;orthogonalLoop=1;jettySize=auto;html=1;entryX=0.5;entryY=1;entryDx=0;entryDy=0;" edge="1" parent="1" source="I2AaYKb_KKNV5OTsQZRc-4" target="I2AaYKb_KKNV5OTsQZRc-16">
          <mxGeometry relative="1" as="geometry" />
        </mxCell>
        <mxCell id="I2AaYKb_KKNV5OTsQZRc-22" style="edgeStyle=orthogonalEdgeStyle;rounded=0;orthogonalLoop=1;jettySize=auto;html=1;" edge="1" parent="1" source="I2AaYKb_KKNV5OTsQZRc-4" target="I2AaYKb_KKNV5OTsQZRc-21">
          <mxGeometry relative="1" as="geometry" />
        </mxCell>
        <mxCell id="I2AaYKb_KKNV5OTsQZRc-27" style="edgeStyle=orthogonalEdgeStyle;rounded=0;orthogonalLoop=1;jettySize=auto;html=1;entryX=1;entryY=0.5;entryDx=0;entryDy=0;" edge="1" parent="1" source="I2AaYKb_KKNV5OTsQZRc-4" target="I2AaYKb_KKNV5OTsQZRc-1">
          <mxGeometry relative="1" as="geometry" />
        </mxCell>
        <mxCell id="I2AaYKb_KKNV5OTsQZRc-28" style="edgeStyle=orthogonalEdgeStyle;rounded=0;orthogonalLoop=1;jettySize=auto;html=1;" edge="1" parent="1" source="I2AaYKb_KKNV5OTsQZRc-4" target="I2AaYKb_KKNV5OTsQZRc-24">
          <mxGeometry relative="1" as="geometry" />
        </mxCell>
        <mxCell id="I2AaYKb_KKNV5OTsQZRc-29" style="edgeStyle=orthogonalEdgeStyle;rounded=0;orthogonalLoop=1;jettySize=auto;html=1;entryX=0;entryY=0.5;entryDx=0;entryDy=0;" edge="1" parent="1" source="I2AaYKb_KKNV5OTsQZRc-4" target="I2AaYKb_KKNV5OTsQZRc-23">
          <mxGeometry relative="1" as="geometry" />
        </mxCell>
        <mxCell id="I2AaYKb_KKNV5OTsQZRc-30" style="edgeStyle=orthogonalEdgeStyle;rounded=0;orthogonalLoop=1;jettySize=auto;html=1;entryX=0;entryY=0.5;entryDx=0;entryDy=0;" edge="1" parent="1" source="I2AaYKb_KKNV5OTsQZRc-4" target="I2AaYKb_KKNV5OTsQZRc-25">
          <mxGeometry relative="1" as="geometry" />
        </mxCell>
        <mxCell id="I2AaYKb_KKNV5OTsQZRc-32" style="edgeStyle=orthogonalEdgeStyle;rounded=0;orthogonalLoop=1;jettySize=auto;html=1;entryX=1;entryY=0.5;entryDx=0;entryDy=0;" edge="1" parent="1" source="I2AaYKb_KKNV5OTsQZRc-4" target="I2AaYKb_KKNV5OTsQZRc-26">
          <mxGeometry relative="1" as="geometry" />
        </mxCell>
        <mxCell id="I2AaYKb_KKNV5OTsQZRc-33" style="edgeStyle=orthogonalEdgeStyle;rounded=0;orthogonalLoop=1;jettySize=auto;html=1;entryX=1;entryY=0.5;entryDx=0;entryDy=0;" edge="1" parent="1" source="I2AaYKb_KKNV5OTsQZRc-4" target="I2AaYKb_KKNV5OTsQZRc-31">
          <mxGeometry relative="1" as="geometry">
            <Array as="points">
              <mxPoint x="80" y="490" />
              <mxPoint x="80" y="645" />
            </Array>
          </mxGeometry>
        </mxCell>
        <mxCell id="I2AaYKb_KKNV5OTsQZRc-36" style="edgeStyle=orthogonalEdgeStyle;rounded=0;orthogonalLoop=1;jettySize=auto;html=1;" edge="1" parent="1" source="I2AaYKb_KKNV5OTsQZRc-4">
          <mxGeometry relative="1" as="geometry">
            <mxPoint x="-50" y="270" as="targetPoint" />
            <Array as="points">
              <mxPoint x="170" y="410" />
              <mxPoint x="-50" y="410" />
            </Array>
          </mxGeometry>
        </mxCell>
        <mxCell id="I2AaYKb_KKNV5OTsQZRc-61" style="edgeStyle=orthogonalEdgeStyle;rounded=0;orthogonalLoop=1;jettySize=auto;html=1;entryX=0;entryY=0.5;entryDx=0;entryDy=0;" edge="1" parent="1" source="I2AaYKb_KKNV5OTsQZRc-4" target="I2AaYKb_KKNV5OTsQZRc-60">
          <mxGeometry relative="1" as="geometry" />
        </mxCell>
        <mxCell id="I2AaYKb_KKNV5OTsQZRc-69" style="edgeStyle=orthogonalEdgeStyle;rounded=0;orthogonalLoop=1;jettySize=auto;html=1;" edge="1" parent="1" source="I2AaYKb_KKNV5OTsQZRc-4" target="I2AaYKb_KKNV5OTsQZRc-70">
          <mxGeometry relative="1" as="geometry">
            <mxPoint x="150" y="830" as="targetPoint" />
          </mxGeometry>
        </mxCell>
        <mxCell id="I2AaYKb_KKNV5OTsQZRc-72" style="edgeStyle=orthogonalEdgeStyle;rounded=0;orthogonalLoop=1;jettySize=auto;html=1;entryX=0.5;entryY=0;entryDx=0;entryDy=0;" edge="1" parent="1" source="I2AaYKb_KKNV5OTsQZRc-4" target="I2AaYKb_KKNV5OTsQZRc-71">
          <mxGeometry relative="1" as="geometry" />
        </mxCell>
        <mxCell id="I2AaYKb_KKNV5OTsQZRc-78" style="edgeStyle=orthogonalEdgeStyle;rounded=0;orthogonalLoop=1;jettySize=auto;html=1;" edge="1" parent="1" source="I2AaYKb_KKNV5OTsQZRc-4" target="I2AaYKb_KKNV5OTsQZRc-77">
          <mxGeometry relative="1" as="geometry">
            <Array as="points">
              <mxPoint x="170" y="400" />
              <mxPoint x="350" y="400" />
            </Array>
          </mxGeometry>
        </mxCell>
        <mxCell id="I2AaYKb_KKNV5OTsQZRc-4" value="user" style="rounded=0;whiteSpace=wrap;html=1;" vertex="1" parent="1">
          <mxGeometry x="110" y="460" width="120" height="60" as="geometry" />
        </mxCell>
        <mxCell id="I2AaYKb_KKNV5OTsQZRc-15" value="user profile view" style="rounded=0;whiteSpace=wrap;html=1;" vertex="1" parent="1">
          <mxGeometry x="90" y="200" width="120" height="60" as="geometry" />
        </mxCell>
        <mxCell id="I2AaYKb_KKNV5OTsQZRc-16" value="created topic view" style="rounded=0;whiteSpace=wrap;html=1;" vertex="1" parent="1">
          <mxGeometry x="170" y="270" width="150" height="60" as="geometry" />
        </mxCell>
        <mxCell id="I2AaYKb_KKNV5OTsQZRc-20" value="&lt;span style=&quot;text-align: left;&quot;&gt;post edit remove topic&lt;/span&gt;" style="rounded=0;whiteSpace=wrap;html=1;" vertex="1" parent="1">
          <mxGeometry x="314" y="420" width="140" height="60" as="geometry" />
        </mxCell>
        <mxCell id="I2AaYKb_KKNV5OTsQZRc-21" value="comment topic" style="rounded=0;whiteSpace=wrap;html=1;" vertex="1" parent="1">
          <mxGeometry x="314" y="500" width="120" height="60" as="geometry" />
        </mxCell>
        <mxCell id="I2AaYKb_KKNV5OTsQZRc-23" value="search topic" style="rounded=0;whiteSpace=wrap;html=1;" vertex="1" parent="1">
          <mxGeometry x="314" y="585" width="120" height="60" as="geometry" />
        </mxCell>
        <mxCell id="I2AaYKb_KKNV5OTsQZRc-24" value="search user" style="rounded=0;whiteSpace=wrap;html=1;" vertex="1" parent="1">
          <mxGeometry x="10" y="280" width="120" height="60" as="geometry" />
        </mxCell>
        <mxCell id="I2AaYKb_KKNV5OTsQZRc-25" value="like topic" style="rounded=0;whiteSpace=wrap;html=1;" vertex="1" parent="1">
          <mxGeometry x="314" y="660" width="120" height="60" as="geometry" />
        </mxCell>
        <mxCell id="I2AaYKb_KKNV5OTsQZRc-26" value="&lt;span style=&quot;text-align: left;&quot;&gt;post edit remove comment&lt;/span&gt;" style="rounded=0;whiteSpace=wrap;html=1;" vertex="1" parent="1">
          <mxGeometry x="-90" y="540" width="126" height="60" as="geometry" />
        </mxCell>
        <mxCell id="I2AaYKb_KKNV5OTsQZRc-31" value="like comment" style="rounded=0;whiteSpace=wrap;html=1;" vertex="1" parent="1">
          <mxGeometry x="-90" y="615" width="120" height="60" as="geometry" />
        </mxCell>
        <mxCell id="I2AaYKb_KKNV5OTsQZRc-34" value="topic liked view" style="rounded=0;whiteSpace=wrap;html=1;" vertex="1" parent="1">
          <mxGeometry x="-110" y="210" width="120" height="60" as="geometry" />
        </mxCell>
        <mxCell id="I2AaYKb_KKNV5OTsQZRc-60" value="view topic" style="rounded=0;whiteSpace=wrap;html=1;" vertex="1" parent="1">
          <mxGeometry x="310" y="740" width="120" height="60" as="geometry" />
        </mxCell>
        <mxCell id="I2AaYKb_KKNV5OTsQZRc-64" value="topic" style="swimlane;whiteSpace=wrap;html=1;" vertex="1" parent="1">
          <mxGeometry x="690" y="120" width="370" height="350" as="geometry" />
        </mxCell>
        <mxCell id="I2AaYKb_KKNV5OTsQZRc-98" value="post" style="rounded=0;whiteSpace=wrap;html=1;" vertex="1" parent="I2AaYKb_KKNV5OTsQZRc-64">
          <mxGeometry x="100" y="130" width="120" height="60" as="geometry" />
        </mxCell>
        <mxCell id="I2AaYKb_KKNV5OTsQZRc-99" value="edit" style="rounded=0;whiteSpace=wrap;html=1;" vertex="1" parent="I2AaYKb_KKNV5OTsQZRc-64">
          <mxGeometry x="17" y="70" width="120" height="60" as="geometry" />
        </mxCell>
        <mxCell id="I2AaYKb_KKNV5OTsQZRc-100" value="delete" style="rounded=0;whiteSpace=wrap;html=1;" vertex="1" parent="I2AaYKb_KKNV5OTsQZRc-64">
          <mxGeometry x="140" y="50" width="120" height="60" as="geometry" />
        </mxCell>
        <mxCell id="I2AaYKb_KKNV5OTsQZRc-116" value="unlike&amp;nbsp;" style="rounded=0;whiteSpace=wrap;html=1;" vertex="1" parent="I2AaYKb_KKNV5OTsQZRc-64">
          <mxGeometry x="186.25" y="200" width="120" height="60" as="geometry" />
        </mxCell>
        <mxCell id="I2AaYKb_KKNV5OTsQZRc-115" value="like&amp;nbsp;" style="rounded=0;whiteSpace=wrap;html=1;" vertex="1" parent="I2AaYKb_KKNV5OTsQZRc-64">
          <mxGeometry x="33.75" y="200" width="120" height="60" as="geometry" />
        </mxCell>
        <mxCell id="I2AaYKb_KKNV5OTsQZRc-93" value="&amp;nbsp;replied" style="rounded=0;whiteSpace=wrap;html=1;" vertex="1" parent="I2AaYKb_KKNV5OTsQZRc-64">
          <mxGeometry x="240" y="130" width="120" height="60" as="geometry" />
        </mxCell>
        <mxCell id="I2AaYKb_KKNV5OTsQZRc-66" value="replied" style="swimlane;whiteSpace=wrap;html=1;" vertex="1" parent="1">
          <mxGeometry x="1052.5" y="760" width="447.5" height="410" as="geometry" />
        </mxCell>
        <mxCell id="I2AaYKb_KKNV5OTsQZRc-91" value="edit" style="rounded=0;whiteSpace=wrap;html=1;" vertex="1" parent="I2AaYKb_KKNV5OTsQZRc-66">
          <mxGeometry x="217.5" y="40" width="120" height="60" as="geometry" />
        </mxCell>
        <mxCell id="I2AaYKb_KKNV5OTsQZRc-37" value="replied" style="rounded=0;whiteSpace=wrap;html=1;" vertex="1" parent="I2AaYKb_KKNV5OTsQZRc-66">
          <mxGeometry x="86" y="50" width="120" height="60" as="geometry" />
        </mxCell>
        <mxCell id="I2AaYKb_KKNV5OTsQZRc-57" value="&lt;span style=&quot;text-align: left;&quot;&gt;delete&lt;/span&gt;" style="rounded=0;whiteSpace=wrap;html=1;" vertex="1" parent="I2AaYKb_KKNV5OTsQZRc-66">
          <mxGeometry x="110" y="125" width="126" height="60" as="geometry" />
        </mxCell>
        <mxCell id="I2AaYKb_KKNV5OTsQZRc-74" value="dislike&amp;nbsp;" style="rounded=0;whiteSpace=wrap;html=1;" vertex="1" parent="I2AaYKb_KKNV5OTsQZRc-66">
          <mxGeometry x="250" y="250" width="120" height="60" as="geometry" />
        </mxCell>
        <mxCell id="I2AaYKb_KKNV5OTsQZRc-58" value="like&amp;nbsp;" style="rounded=0;whiteSpace=wrap;html=1;" vertex="1" parent="I2AaYKb_KKNV5OTsQZRc-66">
          <mxGeometry x="97.5" y="250" width="120" height="60" as="geometry" />
        </mxCell>
        <mxCell id="I2AaYKb_KKNV5OTsQZRc-120" value="undo like" style="rounded=0;whiteSpace=wrap;html=1;" vertex="1" parent="I2AaYKb_KKNV5OTsQZRc-66">
          <mxGeometry x="97.5" y="320" width="120" height="60" as="geometry" />
        </mxCell>
        <mxCell id="I2AaYKb_KKNV5OTsQZRc-121" value="undo dislike&amp;nbsp;" style="rounded=0;whiteSpace=wrap;html=1;" vertex="1" parent="I2AaYKb_KKNV5OTsQZRc-66">
          <mxGeometry x="250" y="320" width="120" height="60" as="geometry" />
        </mxCell>
        <mxCell id="I2AaYKb_KKNV5OTsQZRc-67" value="profile" style="swimlane;whiteSpace=wrap;html=1;" vertex="1" parent="1">
          <mxGeometry x="1100" y="50" width="240" height="160" as="geometry" />
        </mxCell>
        <mxCell id="I2AaYKb_KKNV5OTsQZRc-79" value="edit" style="rounded=0;whiteSpace=wrap;html=1;" vertex="1" parent="I2AaYKb_KKNV5OTsQZRc-67">
          <mxGeometry x="15" y="50" width="120" height="60" as="geometry" />
        </mxCell>
        <mxCell id="I2AaYKb_KKNV5OTsQZRc-119" value="create" style="rounded=0;whiteSpace=wrap;html=1;strokeColor=light-dark(#000000,#FFFFFF);" vertex="1" parent="I2AaYKb_KKNV5OTsQZRc-67">
          <mxGeometry x="110" y="90" width="120" height="60" as="geometry" />
        </mxCell>
        <mxCell id="I2AaYKb_KKNV5OTsQZRc-68" value="replied view" style="swimlane;whiteSpace=wrap;html=1;startSize=23;" vertex="1" parent="1">
          <mxGeometry x="1540" y="760" width="407.5" height="240" as="geometry" />
        </mxCell>
        <mxCell id="I2AaYKb_KKNV5OTsQZRc-114" value="total like&amp;nbsp;" style="rounded=0;whiteSpace=wrap;html=1;fillColor=light-dark(#A20025,#1D1B1B);fontColor=light-dark(#FFFFFF,#FFFFFF);strokeColor=light-dark(#6F0000,#FF0101);" vertex="1" parent="I2AaYKb_KKNV5OTsQZRc-68">
          <mxGeometry x="140" y="110" width="120" height="60" as="geometry" />
        </mxCell>
        <mxCell id="I2AaYKb_KKNV5OTsQZRc-59" value="listing" style="rounded=0;whiteSpace=wrap;html=1;" vertex="1" parent="I2AaYKb_KKNV5OTsQZRc-68">
          <mxGeometry x="140" y="40" width="120" height="60" as="geometry" />
        </mxCell>
        <mxCell id="I2AaYKb_KKNV5OTsQZRc-70" value="unlike&amp;nbsp; topic" style="rounded=0;whiteSpace=wrap;html=1;" vertex="1" parent="1">
          <mxGeometry x="36" y="690" width="120" height="60" as="geometry" />
        </mxCell>
        <mxCell id="I2AaYKb_KKNV5OTsQZRc-71" value="unlike comment" style="rounded=0;whiteSpace=wrap;html=1;" vertex="1" parent="1">
          <mxGeometry x="110" y="760" width="120" height="60" as="geometry" />
        </mxCell>
        <mxCell id="I2AaYKb_KKNV5OTsQZRc-77" value="edit user profile" style="rounded=0;whiteSpace=wrap;html=1;" vertex="1" parent="1">
          <mxGeometry x="290" y="200" width="120" height="60" as="geometry" />
        </mxCell>
        <mxCell id="I2AaYKb_KKNV5OTsQZRc-80" value="athentication" style="swimlane;whiteSpace=wrap;html=1;" vertex="1" parent="1">
          <mxGeometry x="1400" y="420" width="300" height="265" as="geometry" />
        </mxCell>
        <mxCell id="I2AaYKb_KKNV5OTsQZRc-82" value="login" style="rounded=0;whiteSpace=wrap;html=1;fillColor=light-dark(#D80073,#171818);strokeColor=light-dark(#000000, #ff0000);gradientColor=none;gradientDirection=radial;" vertex="1" parent="I2AaYKb_KKNV5OTsQZRc-80">
          <mxGeometry x="28" y="40" width="120" height="60" as="geometry" />
        </mxCell>
        <mxCell id="I2AaYKb_KKNV5OTsQZRc-84" value="athen" style="rounded=0;whiteSpace=wrap;html=1;strokeColor=light-dark(#000000,#FF0000);" vertex="1" parent="I2AaYKb_KKNV5OTsQZRc-80">
          <mxGeometry x="100" y="160" width="120" height="60" as="geometry" />
        </mxCell>
        <mxCell id="I2AaYKb_KKNV5OTsQZRc-83" value="register" style="rounded=0;whiteSpace=wrap;html=1;fillColor=light-dark(#A20025,#1D1B1B);strokeColor=light-dark(#000000,#FF0000);" vertex="1" parent="I2AaYKb_KKNV5OTsQZRc-80">
          <mxGeometry x="130" y="92.5" width="120" height="60" as="geometry" />
        </mxCell>
        <mxCell id="I2AaYKb_KKNV5OTsQZRc-85" value="entities" style="swimlane;whiteSpace=wrap;html=1;" vertex="1" parent="1">
          <mxGeometry x="2180" y="220" width="450" height="365" as="geometry">
            <mxRectangle x="2220" y="245" width="80" height="30" as="alternateBounds" />
          </mxGeometry>
        </mxCell>
        <mxCell id="I2AaYKb_KKNV5OTsQZRc-89" value="topic" style="rounded=0;whiteSpace=wrap;html=1;" vertex="1" parent="I2AaYKb_KKNV5OTsQZRc-85">
          <mxGeometry x="120" y="65" width="120" height="60" as="geometry" />
        </mxCell>
        <mxCell id="I2AaYKb_KKNV5OTsQZRc-86" value="profile" style="rounded=0;whiteSpace=wrap;html=1;" vertex="1" parent="I2AaYKb_KKNV5OTsQZRc-85">
          <mxGeometry x="70" y="135" width="120" height="60" as="geometry" />
        </mxCell>
        <mxCell id="I2AaYKb_KKNV5OTsQZRc-125" value="credential" style="rounded=0;whiteSpace=wrap;html=1;" vertex="1" parent="I2AaYKb_KKNV5OTsQZRc-85">
          <mxGeometry x="70" y="205" width="120" height="60" as="geometry" />
        </mxCell>
        <mxCell id="I2AaYKb_KKNV5OTsQZRc-88" value="&amp;nbsp;topic like" style="rounded=0;whiteSpace=wrap;html=1;fillColor=#1ba1e2;fontColor=#ffffff;strokeColor=#006EAF;" vertex="1" parent="I2AaYKb_KKNV5OTsQZRc-85">
          <mxGeometry x="250" y="65" width="120" height="60" as="geometry" />
        </mxCell>
        <mxCell id="I2AaYKb_KKNV5OTsQZRc-126" value="&amp;nbsp;topic dislike" style="rounded=0;whiteSpace=wrap;html=1;fillColor=#1ba1e2;fontColor=#ffffff;strokeColor=#006EAF;" vertex="1" parent="I2AaYKb_KKNV5OTsQZRc-85">
          <mxGeometry x="300" y="135" width="120" height="60" as="geometry" />
        </mxCell>
        <mxCell id="I2AaYKb_KKNV5OTsQZRc-87" value="replied" style="rounded=0;whiteSpace=wrap;html=1;" vertex="1" parent="I2AaYKb_KKNV5OTsQZRc-85">
          <mxGeometry x="110" y="280" width="120" height="60" as="geometry" />
        </mxCell>
        <mxCell id="I2AaYKb_KKNV5OTsQZRc-127" value="replied dislike" style="rounded=0;whiteSpace=wrap;html=1;fillColor=#1ba1e2;fontColor=#ffffff;strokeColor=#006EAF;" vertex="1" parent="I2AaYKb_KKNV5OTsQZRc-85">
          <mxGeometry x="300" y="205" width="120" height="60" as="geometry" />
        </mxCell>
        <mxCell id="I2AaYKb_KKNV5OTsQZRc-128" value="replied like" style="rounded=0;whiteSpace=wrap;html=1;fillColor=#1ba1e2;fontColor=#ffffff;strokeColor=#006EAF;" vertex="1" parent="I2AaYKb_KKNV5OTsQZRc-85">
          <mxGeometry x="250" y="280" width="120" height="60" as="geometry" />
        </mxCell>
        <mxCell id="I2AaYKb_KKNV5OTsQZRc-94" value="image upload" style="swimlane;whiteSpace=wrap;html=1;strokeColor=light-dark(#000000,#FF0000);" vertex="1" parent="1">
          <mxGeometry x="710" y="760" width="305" height="200" as="geometry" />
        </mxCell>
        <mxCell id="I2AaYKb_KKNV5OTsQZRc-95" value="upload" style="rounded=0;whiteSpace=wrap;html=1;strokeColor=light-dark(#000000,#FF0000);" vertex="1" parent="I2AaYKb_KKNV5OTsQZRc-94">
          <mxGeometry x="12" y="30" width="120" height="60" as="geometry" />
        </mxCell>
        <mxCell id="I2AaYKb_KKNV5OTsQZRc-129" value="delete" style="rounded=0;whiteSpace=wrap;html=1;strokeColor=light-dark(#000000,#FF0000);" vertex="1" parent="I2AaYKb_KKNV5OTsQZRc-94">
          <mxGeometry x="150" y="30" width="120" height="60" as="geometry" />
        </mxCell>
        <mxCell id="I2AaYKb_KKNV5OTsQZRc-130" value="is_used" style="rounded=0;whiteSpace=wrap;html=1;strokeColor=light-dark(#000000,#FF0000);" vertex="1" parent="I2AaYKb_KKNV5OTsQZRc-94">
          <mxGeometry x="70" y="125" width="120" height="60" as="geometry" />
        </mxCell>
        <mxCell id="I2AaYKb_KKNV5OTsQZRc-96" value="image query" style="swimlane;whiteSpace=wrap;html=1;strokeColor=light-dark(#000000,#CC0000);" vertex="1" parent="1">
          <mxGeometry x="815" y="990" width="200" height="200" as="geometry" />
        </mxCell>
        <mxCell id="I2AaYKb_KKNV5OTsQZRc-97" value="get URI" style="rounded=0;whiteSpace=wrap;html=1;strokeColor=light-dark(#000000,#FF0000);" vertex="1" parent="I2AaYKb_KKNV5OTsQZRc-96">
          <mxGeometry x="12" y="30" width="120" height="60" as="geometry" />
        </mxCell>
        <mxCell id="I2AaYKb_KKNV5OTsQZRc-101" value="topic view" style="swimlane;whiteSpace=wrap;html=1;" vertex="1" parent="1">
          <mxGeometry x="680" y="497.5" width="440" height="242.5" as="geometry" />
        </mxCell>
        <mxCell id="I2AaYKb_KKNV5OTsQZRc-62" value="view detial&amp;nbsp;" style="rounded=0;whiteSpace=wrap;html=1;" vertex="1" parent="I2AaYKb_KKNV5OTsQZRc-101">
          <mxGeometry x="40" y="40" width="120" height="60" as="geometry" />
        </mxCell>
        <mxCell id="I2AaYKb_KKNV5OTsQZRc-54" value="listing (searching)" style="rounded=0;whiteSpace=wrap;html=1;" vertex="1" parent="I2AaYKb_KKNV5OTsQZRc-101">
          <mxGeometry x="40" y="110" width="120" height="60" as="geometry" />
        </mxCell>
        <mxCell id="I2AaYKb_KKNV5OTsQZRc-90" value="total like&amp;nbsp;" style="rounded=0;whiteSpace=wrap;html=1;fillColor=light-dark(#A20025,#1D1B1B);fontColor=light-dark(#FFFFFF,#FFFFFF);strokeColor=light-dark(#6F0000,#FF0101);" vertex="1" parent="I2AaYKb_KKNV5OTsQZRc-101">
          <mxGeometry x="196.25" y="100" width="120" height="60" as="geometry" />
        </mxCell>
        <mxCell id="I2AaYKb_KKNV5OTsQZRc-102" value="user topic" style="swimlane;whiteSpace=wrap;html=1;" vertex="1" parent="1">
          <mxGeometry x="1410" y="20" width="200" height="200" as="geometry" />
        </mxCell>
        <mxCell id="I2AaYKb_KKNV5OTsQZRc-51" value="listing" style="rounded=0;whiteSpace=wrap;html=1;" vertex="1" parent="I2AaYKb_KKNV5OTsQZRc-102">
          <mxGeometry x="30" y="40" width="150" height="60" as="geometry" />
        </mxCell>
        <mxCell id="I2AaYKb_KKNV5OTsQZRc-103" value="profile view" style="swimlane;whiteSpace=wrap;html=1;" vertex="1" parent="1">
          <mxGeometry x="1110" y="227.5" width="230" height="210" as="geometry" />
        </mxCell>
        <mxCell id="I2AaYKb_KKNV5OTsQZRc-50" value="view" style="rounded=0;whiteSpace=wrap;html=1;" vertex="1" parent="I2AaYKb_KKNV5OTsQZRc-103">
          <mxGeometry x="21" y="50" width="120" height="60" as="geometry" />
        </mxCell>
        <mxCell id="I2AaYKb_KKNV5OTsQZRc-55" value="listing" style="rounded=0;whiteSpace=wrap;html=1;" vertex="1" parent="I2AaYKb_KKNV5OTsQZRc-103">
          <mxGeometry x="70" y="120" width="120" height="60" as="geometry" />
        </mxCell>
        <mxCell id="I2AaYKb_KKNV5OTsQZRc-123" value="undo dislike&amp;nbsp;" style="rounded=0;whiteSpace=wrap;html=1;" vertex="1" parent="1">
          <mxGeometry x="872.5" y="390" width="120" height="60" as="geometry" />
        </mxCell>
        <mxCell id="I2AaYKb_KKNV5OTsQZRc-122" value="undo like" style="rounded=0;whiteSpace=wrap;html=1;" vertex="1" parent="1">
          <mxGeometry x="720" y="390" width="120" height="60" as="geometry" />
        </mxCell>
      </root>
    </mxGraphModel>
  </diagram>
</mxfile>
